<svg width="30" height="30" viewBox="0 0 30 30" fill="none" xmlns="http://www.w3.org/2000/svg">
<path d="M26.0571 7.7438C25.992 7.60814 25.8954 7.49006 25.7753 7.3995C25.6552 7.30889 25.5151 7.24847 25.3668 7.2232C25.2185 7.19794 25.0663 7.20862 24.9229 7.25433C24.7796 7.30008 24.6494 7.37948 24.543 7.48598L20.9524 11.1047C20.7839 11.2689 20.5582 11.3611 20.3229 11.362C20.0876 11.3629 19.8612 11.2723 19.6915 11.1094L18.8243 10.2329C18.6553 10.0609 18.5607 9.82941 18.5607 9.58833C18.5607 9.3472 18.6553 9.11578 18.8243 8.9438L22.4149 5.32036C22.5202 5.21508 22.5986 5.08603 22.6435 4.94405C22.6884 4.80206 22.6984 4.65141 22.6727 4.50473C22.6471 4.35741 22.587 4.21819 22.4974 4.09846C22.4078 3.97873 22.2912 3.88183 22.1571 3.81566C20.6129 3.07156 18.8748 2.82833 17.1856 3.11994C15.4965 3.41155 13.9406 4.22344 12.7352 5.44223C11.6081 6.58495 10.8327 8.02725 10.5012 9.5977C10.1696 11.1682 10.2959 12.8008 10.8649 14.3016L4.80867 20.4047C4.29061 20.928 4 21.6347 4 22.3711C4 23.1075 4.29061 23.8142 4.80867 24.3375L5.67586 25.2094C5.93222 25.4692 6.23765 25.6756 6.5744 25.8164C6.91115 25.9572 7.27256 26.0297 7.63757 26.0297C8.00259 26.0297 8.364 25.9572 8.70075 25.8164C9.0375 25.6756 9.34293 25.4692 9.59929 25.2094L15.6462 19.1157C16.9542 19.614 18.3674 19.7717 19.753 19.5741C21.1387 19.3765 22.4515 18.83 23.568 17.986C25.0873 16.8175 26.1622 15.1653 26.6148 13.3028C27.0674 11.4404 26.8707 9.4792 26.0571 7.7438Z" fill="#1C274C"/>
<path d="M4.34601 9.23621C5.46449 10.873 7.60939 10.6868 9.27669 10.6927C9.86504 10.6948 10.4276 10.6908 10.813 10.4275C11.1983 10.1642 11.4064 9.64145 11.6183 9.09255C12.2186 7.53707 13.1714 5.60644 12.053 3.96968C10.9345 2.33291 8.02179 2.6205 7.36309 5.37898C4.5538 4.99034 3.22753 7.59944 4.34601 9.23621Z" fill="#354C9A"/>
<path d="M16.423 18.7089C14.5301 19.2979 14.0788 21.403 13.584 22.9952C13.4094 23.5571 13.2481 24.0961 13.3868 24.5417C13.5254 24.9874 13.9641 25.3397 14.4267 25.7032C15.7376 26.7335 17.3037 28.2109 19.1966 27.6218C21.0895 27.0328 21.6691 24.1639 19.2253 22.7249C20.421 20.1532 18.3159 18.1198 16.423 18.7089Z" fill="#354C9A"/>
</svg>
