<svg width="46" height="46" viewBox="0 0 46 46" fill="none" xmlns="http://www.w3.org/2000/svg">
<path d="M5.75 17.25H40.25M13.4167 5.75V9.58333M32.5833 5.75V9.58333M11.5 24.9167H15.3333M11.5 32.5833H15.3333M21.0833 24.9167H24.9167M21.0833 32.5833H24.9167M30.6667 24.9167H34.5M30.6667 32.5833H34.5M11.8833 40.25H34.1167C36.2635 40.25 37.3371 40.25 38.157 39.8322C38.8782 39.4647 39.4647 38.8782 39.8322 38.157C40.25 37.3371 40.25 36.2635 40.25 34.1167V15.7167C40.25 13.5698 40.25 12.4964 39.8322 11.6764C39.4647 10.9551 38.8782 10.3686 38.157 10.0011C37.3371 9.58333 36.2635 9.58333 34.1167 9.58333H11.8833C9.73647 9.58333 8.66303 9.58333 7.84304 10.0011C7.12174 10.3686 6.53532 10.9551 6.16781 11.6764C5.75 12.4964 5.75 13.5698 5.75 15.7167V34.1167C5.75 36.2635 5.75 37.3371 6.16781 38.157C6.53532 38.8782 7.12174 39.4647 7.84304 39.8322C8.66303 40.25 9.73646 40.25 11.8833 40.25Z" stroke="#1C274C" stroke-width="3" stroke-linecap="round" stroke-linejoin="round"/>
<path d="M27.4648 5.08615C27.4648 7.67718 29.6769 9.05792 31.2962 10.2938C31.8676 10.7299 32.418 11.1405 32.9683 11.1405C33.5187 11.1405 34.069 10.7299 34.6404 10.2938C36.2597 9.05792 38.4718 7.67718 38.4718 5.08615C38.4718 2.4951 35.4448 0.657587 32.9683 3.14859C30.4918 0.657587 27.4648 2.4951 27.4648 5.08615Z" fill="#1C274C"/>
<path d="M8 5.11814C8 7.70916 10.2121 9.0899 11.8314 10.3258C12.4028 10.7619 12.9531 11.1725 13.5035 11.1725C14.0538 11.1725 14.6042 10.7619 15.1756 10.3258C16.7949 9.0899 19.007 7.70916 19.007 5.11814C19.007 2.52709 15.9799 0.689569 13.5035 3.18057C11.027 0.689569 8 2.52709 8 5.11814Z" fill="#1C274C"/>
</svg>
