<svg width="57" height="49" viewBox="0 0 57 49" fill="none" xmlns="http://www.w3.org/2000/svg">
<path d="M38.4 4.56796C36.517 8.36373 38.7541 11.9941 40.2281 14.9814C40.7483 16.0356 41.2561 17.0371 42.0624 17.437C42.8686 17.837 43.9733 17.6355 45.1273 17.4119C48.3977 16.7782 52.6418 16.3631 54.5248 12.5674C56.4079 8.77157 53.3088 3.87975 47.8706 5.72919C46.053 0.280163 40.2831 0.772165 38.4 4.56796Z" fill="#1C274C"/>
<path d="M4.08572 42.9438C6.66157 45.2829 10.2477 44.0919 13.0967 43.4233C14.1021 43.1873 15.0609 42.9515 15.6117 42.3451C16.1624 41.7387 16.3049 40.7615 16.4431 39.7382C16.8348 36.8381 17.6757 33.1541 15.0999 30.815C12.524 28.4758 7.66822 30.1525 7.66657 35.1302C2.71206 35.6103 1.50984 40.6047 4.08572 42.9438Z" fill="#1C274C"/>
<path opacity="0.4" d="M45 15.4444V31.5C45 37.1667 42.1667 40.9444 35.5556 40.9444H20.4444C13.8333 40.9444 11 37.1667 11 31.5V15.4444C11 9.77778 13.8333 6 20.4444 6H35.5556C42.1667 6 45 9.77778 45 15.4444Z" fill="#292D32"/>
<path d="M35.5555 21.5833H20.4444C19.67 21.5833 19.0278 20.9411 19.0278 20.1667C19.0278 19.3922 19.67 18.75 20.4444 18.75H35.5555C36.33 18.75 36.9722 19.3922 36.9722 20.1667C36.9722 20.9411 36.33 21.5833 35.5555 21.5833Z" fill="#292D32"/>
<path d="M28 31.0278H20.4444C19.67 31.0278 19.0278 30.3856 19.0278 29.6111C19.0278 28.8367 19.67 28.1945 20.4444 28.1945H28C28.7744 28.1945 29.4167 28.8367 29.4167 29.6111C29.4167 30.3856 28.7744 31.0278 28 31.0278Z" fill="#292D32"/>
</svg>
