<svg width="60" height="60" viewBox="0 0 60 60" fill="none" xmlns="http://www.w3.org/2000/svg">
<path fill-rule="evenodd" clip-rule="evenodd" d="M29.9832 23.2014C27.9785 20.8864 24.6349 20.2636 22.1228 22.3835C19.6107 24.5035 19.257 28.0478 21.2298 30.555C22.4 32.0423 25.2622 34.7065 27.3972 36.628C28.2832 37.4253 28.7262 37.824 29.261 37.9855C29.7185 38.1235 30.2482 38.1235 30.7057 37.9855C31.2405 37.824 31.6835 37.4253 32.5695 36.628C34.7045 34.7065 37.5667 32.0423 38.737 30.555C40.7097 28.0478 40.3992 24.4812 37.844 22.3835C35.2885 20.2859 31.9882 20.8864 29.9832 23.2014Z" stroke="#1C274C" stroke-width="5" stroke-linecap="round" stroke-linejoin="round"/>
<path d="M52.5 30C52.5 42.4265 42.4265 52.5 30 52.5C24.909 52.5 7.5018 52.5 7.5018 52.5C7.5018 52.5 11.3998 43.1402 9.83977 40.002C8.34212 36.989 7.5 33.593 7.5 30C7.5 17.5736 17.5736 7.5 30 7.5C42.4265 7.5 52.5 17.5736 52.5 30Z" stroke="#1C274C" stroke-width="5" stroke-linecap="round" stroke-linejoin="round"/>
</svg>
