<svg width="29" height="29" viewBox="0 0 29 29" fill="none" xmlns="http://www.w3.org/2000/svg">
<path d="M18.125 14.5C18.125 16.5021 16.5021 18.125 14.5 18.125C12.4979 18.125 10.875 16.5021 10.875 14.5C10.875 12.4979 12.4979 10.875 14.5 10.875C16.5021 10.875 18.125 12.4979 18.125 14.5Z" stroke="#1C274C" stroke-width="2" stroke-linecap="round" stroke-linejoin="round"/>
<path d="M15.5931 3.69756C15.3444 3.625 15.063 3.625 14.5 3.625C13.937 3.625 13.6556 3.625 13.4069 3.69756C13.043 3.80376 12.7215 4.02143 12.4876 4.31992C12.3279 4.52385 12.2234 4.78519 12.0144 5.30787C11.7138 6.05921 10.8797 6.44611 10.112 6.19029L9.42233 5.96048C8.93309 5.7974 8.68846 5.71585 8.44862 5.70188C8.0963 5.68135 7.74566 5.76414 7.43972 5.94005C7.23145 6.0598 7.04913 6.24214 6.68446 6.6068C6.29689 6.99438 6.1031 7.18816 5.97999 7.40937C5.79912 7.73435 5.72261 8.10712 5.76084 8.47707C5.78685 8.72888 5.88863 8.98334 6.0922 9.49226C6.41099 10.2892 6.10431 11.1998 5.36829 11.6415L5.03296 11.8427C4.51954 12.1508 4.26283 12.3048 4.07636 12.5169C3.91135 12.7045 3.78693 12.9243 3.7109 13.1624C3.625 13.4313 3.625 13.7337 3.625 14.3384C3.625 15.0545 3.625 15.4124 3.73933 15.719C3.84036 15.9898 4.00468 16.2324 4.21858 16.4268C4.46066 16.6467 4.78977 16.7784 5.44796 17.0417C6.12062 17.3107 6.46695 18.0575 6.23785 18.7448L5.97788 19.5247C5.79781 20.0649 5.70777 20.335 5.69959 20.6004C5.68974 20.9195 5.76434 21.2355 5.91584 21.5164C6.04185 21.7502 6.24319 21.9516 6.64583 22.3542C7.04849 22.7568 7.24982 22.9581 7.48351 23.0841C7.76451 23.2356 8.08052 23.3103 8.39961 23.3004C8.66498 23.2922 8.93509 23.2022 9.47532 23.0221L10.1121 22.8098C10.8797 22.554 11.7138 22.9408 12.0144 23.6922C12.2234 24.2148 12.3279 24.4761 12.4876 24.6801C12.7215 24.9785 13.043 25.1963 13.4069 25.3025C13.6556 25.375 13.937 25.375 14.5 25.375C15.063 25.375 15.3444 25.375 15.5931 25.3025C15.957 25.1963 16.2785 24.9785 16.5124 24.6801C16.6721 24.4761 16.7766 24.2148 16.9857 23.6922C17.2862 22.9408 18.1203 22.554 18.8878 22.8101L19.5241 23.0223C20.0644 23.2023 20.3346 23.2923 20.5999 23.3005C20.919 23.3103 21.235 23.2358 21.5159 23.0842C21.7496 22.9582 21.9511 22.7569 22.3537 22.3543C22.7563 21.9517 22.9576 21.7502 23.0836 21.5166C23.2352 21.2356 23.3097 20.9195 23.2999 20.6005C23.2917 20.3352 23.2017 20.065 23.0217 19.5247L22.7619 18.7454C22.5326 18.0578 22.8791 17.3108 23.552 17.0417C24.2102 16.7784 24.5393 16.6467 24.7815 16.4268C24.9953 16.2324 25.1597 15.9898 25.2607 15.719C25.375 15.4124 25.375 15.0545 25.375 14.3384C25.375 13.7337 25.375 13.4313 25.2891 13.1624C25.2131 12.9243 25.0886 12.7045 24.9237 12.5169C24.7371 12.3048 24.4805 12.1508 23.9671 11.8427L23.6313 11.6413C22.8953 11.1996 22.5885 10.2891 22.9073 9.49216C23.1108 8.98327 23.2127 8.72879 23.2387 8.47698C23.2769 8.10702 23.2004 7.73426 23.0195 7.40927C22.8963 7.18807 22.7027 6.99428 22.315 6.60671C21.9503 6.24206 21.768 6.05972 21.5598 5.93996C21.2539 5.76404 20.9032 5.68127 20.5509 5.70179C20.311 5.71577 20.0664 5.79731 19.5772 5.96038L18.8879 6.19013C18.1203 6.44602 17.2862 6.05919 16.9857 5.30787C16.7766 4.78519 16.6721 4.52385 16.5124 4.31992C16.2785 4.02143 15.957 3.80376 15.5931 3.69756Z" stroke="#1C274C" stroke-width="2" stroke-linecap="round" stroke-linejoin="round"/>
</svg>
