<svg width="29" height="29" viewBox="0 0 29 29" fill="none" xmlns="http://www.w3.org/2000/svg">
<path d="M23.9492 16.9168H18.85C18.1733 16.9168 17.8349 16.9168 17.5765 17.0485C17.349 17.1644 17.1642 17.3492 17.0484 17.5766C16.9167 17.835 16.9167 18.1734 16.9167 18.8502V23.9493M24.1666 15.3785V8.70016C24.1666 7.34671 24.1666 6.66997 23.9032 6.15302C23.6715 5.69829 23.3018 5.32859 22.8471 5.0969C22.3302 4.8335 21.6534 4.8335 20.2999 4.8335H8.69992C7.34646 4.8335 6.66973 4.8335 6.15278 5.0969C5.69804 5.32859 5.32834 5.69829 5.09666 6.15302C4.83325 6.66997 4.83325 7.34671 4.83325 8.70016V20.3002C4.83325 21.6536 4.83325 22.3304 5.09666 22.8473C5.32834 23.302 5.69804 23.6718 6.15278 23.9034C6.66973 24.1668 7.34646 24.1668 8.69992 24.1668H15.6474C16.2614 24.1668 16.5683 24.1668 16.8559 24.0952C17.1109 24.0317 17.3538 23.9271 17.575 23.7855C17.8246 23.6257 18.0355 23.4026 18.4573 22.9564L23.1098 18.0348C23.5003 17.6217 23.6955 17.4151 23.8349 17.1773C23.9585 16.9664 24.0494 16.7379 24.1045 16.4997C24.1666 16.2311 24.1666 15.9469 24.1666 15.3785Z" fill="#FFF47C"/>
<path d="M23.9492 16.9168H18.85C18.1733 16.9168 17.8349 16.9168 17.5765 17.0485C17.349 17.1644 17.1642 17.3492 17.0484 17.5766C16.9167 17.835 16.9167 18.1734 16.9167 18.8502V23.9493M24.1666 15.3785V8.70016C24.1666 7.34671 24.1666 6.66997 23.9032 6.15302C23.6715 5.69829 23.3018 5.32859 22.8471 5.0969C22.3302 4.8335 21.6534 4.8335 20.2999 4.8335H8.69992C7.34646 4.8335 6.66973 4.8335 6.15278 5.0969C5.69804 5.32859 5.32834 5.69829 5.09666 6.15302C4.83325 6.66997 4.83325 7.34671 4.83325 8.70016V20.3002C4.83325 21.6536 4.83325 22.3304 5.09666 22.8473C5.32834 23.302 5.69804 23.6718 6.15278 23.9034C6.66973 24.1668 7.34646 24.1668 8.69992 24.1668H15.6474C16.2614 24.1668 16.5683 24.1668 16.8559 24.0952C17.1109 24.0317 17.3538 23.9271 17.575 23.7855C17.8246 23.6257 18.0355 23.4026 18.4573 22.9564L23.1098 18.0348C23.5003 17.6217 23.6955 17.4151 23.8349 17.1773C23.9585 16.9664 24.0494 16.7379 24.1045 16.4997C24.1666 16.2311 24.1666 15.9469 24.1666 15.3785Z" stroke="#1C274C" stroke-width="2" stroke-linecap="round" stroke-linejoin="round"/>
</svg>
